<svg xmlns="http://www.w3.org/2000/svg" xmlns:xlink="http://www.w3.org/1999/xlink" width="904" height="642" viewBox="0 0 904 642">
  <defs>
    <clipPath id="clip-canteen">
      <rect width="904" height="642"/>
    </clipPath>
  </defs>
  <g id="canteen" clip-path="url(#clip-canteen)">
    <rect id="Rectangle_585" data-name="Rectangle 585" width="902" height="636" rx="76" transform="translate(2)" fill="#fff"/>
    <rect id="Rectangle_1991" data-name="Rectangle 1991" width="902" height="636" rx="76" transform="translate(2)" fill="#780e2f" opacity="0.09"/>
    <g id="Group_16363" data-name="Group 16363" transform="translate(29.356 39.108)">
      <path id="Rectangle_2016" data-name="Rectangle 2016" d="M6.313,0H114.19A6.313,6.313,0,0,1,120.5,6.313V21.476a0,0,0,0,1,0,0H0a0,0,0,0,1,0,0V6.313A6.313,6.313,0,0,1,6.313,0Z" transform="translate(543.282 345.403)" fill="#fff"/>
      <rect id="Rectangle_2017" data-name="Rectangle 2017" width="406.351" height="2.961" transform="translate(415.096 306.733)" fill="#fff"/>
      <path id="Path_10477" data-name="Path 10477" d="M0,0H403.117V170.733H0Z" transform="translate(418.329 362.4)" fill="#fff"/>
      <path id="Path_10303" data-name="Path 10303" d="M699.854,282.866H291.741V168.583H699.854ZM294.7,279.905H696.893V171.544H294.7Z" transform="translate(121.874 81.015)" fill="#fff"/>
      <g id="Group_16323" data-name="Group 16323" transform="translate(501.791 337.178)">
        <rect id="Rectangle_2021" data-name="Rectangle 2021" width="2.686" height="96.999" transform="translate(16.03 98.891)" fill="#000543"/>
        <rect id="Rectangle_2022" data-name="Rectangle 2022" width="2.832" height="45.155" transform="translate(16.253 59.812) rotate(-5.519)" fill="#000543"/>
        <rect id="Rectangle_2023" data-name="Rectangle 2023" width="2.833" height="45.155" transform="translate(74.625 58.933) rotate(-5.519)" fill="#000543"/>
        <rect id="Rectangle_2024" data-name="Rectangle 2024" width="2.686" height="87.379" transform="translate(65.642 108.51)" fill="#000543"/>
        <rect id="Rectangle_2025" data-name="Rectangle 2025" width="2.686" height="87.379" transform="translate(114.538 108.51)" fill="#000543"/>
        <g id="Group_16322" data-name="Group 16322">
          <path id="Path_10304" data-name="Path 10304" d="M360.558,289.489h60.41l-5.5-51.5c-.6-5.637-4.981-10.25-9.727-10.25H358.9c-4.748,0-8.142,4.613-7.538,10.25l5.108,47.831A4.105,4.105,0,0,0,360.558,289.489Z" transform="translate(-351.297 -227.736)" fill="#678fb7"/>
          <path id="Path_10305" data-name="Path 10305" d="M366.859,289.489H427.2a3.7,3.7,0,0,0,3.675-4.125l-5.484-47.378c-.651-5.637-5.4-10.25-10.542-10.25h-50.76c-5.146,0-8.823,4.613-8.17,10.25l5.6,46.768A5.375,5.375,0,0,0,366.859,289.489Z" transform="translate(-349.112 -227.736)" fill="#8bb5d8"/>
        </g>
        <path id="Path_10306" data-name="Path 10306" d="M433.989,307.819H366.961a8.471,8.471,0,1,1,0-16.927h67.028a8.471,8.471,0,1,1,0,16.927Z" transform="translate(-348.014 -197.386)" fill="#678fb7"/>
        <path id="Path_10307" data-name="Path 10307" d="M426.4,290.892H398.477a8.471,8.471,0,1,0,0,16.927H426.4Z" transform="translate(-332.869 -197.386)" fill="#8bb5d8"/>
        <path id="Path_10308" data-name="Path 10308" d="M437.57,290.892H412.452v16.927H437.57a8.471,8.471,0,1,0,0-16.927Z" transform="translate(-321.908 -197.386)" fill="#8bb5d8"/>
      </g>
      <path id="Path_10309" data-name="Path 10309" d="M378.421,220.417h-8.645a2.249,2.249,0,0,1-2.247-2.249l-1.82-36.111h16.379l-1.418,36.111A2.249,2.249,0,0,1,378.421,220.417Z" transform="translate(157.42 87.49)" fill="#fff"/>
      <path id="Path_10310" data-name="Path 10310" d="M360.381,220.417h-8.645a2.249,2.249,0,0,1-2.249-2.249l-1.82-36.111h16.381l-1.42,36.111A2.249,2.249,0,0,1,360.381,220.417Z" transform="translate(148.75 87.49)" fill="#fff"/>
      <path id="Path_10311" data-name="Path 10311" d="M342.338,220.716h-8.645a2.248,2.248,0,0,1-2.247-2.248l-1.82-36.111h16.381l-1.42,36.111A2.248,2.248,0,0,1,342.338,220.716Z" transform="translate(140.08 87.635)" fill="#fff"/>
      <path id="Path_10312" data-name="Path 10312" d="M564,212.048H557.6c.38-.32.752-.647,1.118-.973a8.374,8.374,0,0,0,2.028-2.326,2.86,2.86,0,0,0-.068-2.946c-.94-1.257-2.892-1.1-4.2-1.965-1.66-1.09-1.917-3.512-3.435-4.793-1.959-1.654-5.126-.757-7.286-2.138-1.442-.921-2.132-2.667-3.41-3.807a5.308,5.308,0,0,0-5.49-.894c-1.759.754-3,2.425-4.759,3.171-2.049.869-4.4.336-6.6.672-3.577.548-6.354,3.321-8.328,6.409a12.947,12.947,0,0,0-10.075,9.588h-10.12a1.922,1.922,0,0,0,0,3.844H564a1.922,1.922,0,1,0,0-3.844Z" transform="translate(219.577 92.175)" fill="#fff"/>
      <path id="Path_10313" data-name="Path 10313" d="M508.389,211.81h-6.394c.38-.32.754-.647,1.118-.974a8.365,8.365,0,0,0,2.028-2.325,2.856,2.856,0,0,0-.068-2.946c-.94-1.257-2.891-1.1-4.2-1.965-1.658-1.091-1.917-3.512-3.435-4.793-1.959-1.654-5.126-.758-7.284-2.138-1.444-.922-2.133-2.668-3.411-3.807a5.3,5.3,0,0,0-5.49-.894c-1.757.752-3,2.425-4.757,3.171-2.049.869-4.406.336-6.606.672-3.577.546-6.354,3.321-8.327,6.408a12.946,12.946,0,0,0-10.077,9.59h-10.12a1.922,1.922,0,0,0,0,3.844h67.027a1.922,1.922,0,1,0,0-3.844Z" transform="translate(192.853 92.061)" fill="#fff"/>
      <path id="Path_10314" data-name="Path 10314" d="M455.079,211.81h-6.395c.381-.32.752-.647,1.118-.974a8.365,8.365,0,0,0,2.028-2.325,2.859,2.859,0,0,0-.068-2.946c-.94-1.257-2.892-1.1-4.2-1.965-1.66-1.091-1.917-3.512-3.435-4.793-1.959-1.654-5.126-.758-7.286-2.138-1.442-.922-2.132-2.668-3.41-3.807a5.3,5.3,0,0,0-5.49-.894c-1.759.752-3,2.425-4.757,3.171-2.051.869-4.406.336-6.606.672-3.577.546-6.355,3.321-8.327,6.408a12.946,12.946,0,0,0-10.077,9.59h-10.12a1.922,1.922,0,0,0,0,3.844h67.027a1.922,1.922,0,1,0,0-3.844Z" transform="translate(167.234 92.061)" fill="#fff"/>
      <g id="Group_16324" data-name="Group 16324" transform="translate(38.135 175.632)">
        <rect id="Rectangle_2026" data-name="Rectangle 2026" width="159.269" height="357.778" rx="6.587" transform="translate(210.342 357.778) rotate(180)" fill="#fff"/>
        <rect id="Rectangle_2027" data-name="Rectangle 2027" width="82.764" height="357.778" rx="5.723" transform="translate(82.764 357.778) rotate(180)" fill="#dce4f9"/>
        <rect id="Rectangle_2028" data-name="Rectangle 2028" width="140.289" height="2.961" transform="translate(70.053 75.423)" fill="#dce4f9"/>
      </g>
      <path id="Rectangle_2029" data-name="Rectangle 2029" d="M6.313,0H114.19A6.313,6.313,0,0,1,120.5,6.313V21.476a0,0,0,0,1,0,0H0a0,0,0,0,1,0,0V6.313A6.313,6.313,0,0,1,6.313,0Z" transform="translate(674.239 345.403)" fill="#fff"/>
      <path id="Path_10316" data-name="Path 10316" d="M550.17,175.3H522.659a8.8,8.8,0,0,1,0-17.608H550.17a8.8,8.8,0,0,1,0,17.608Z" transform="translate(228.614 75.78)" fill="#fff"/>
      <path id="Path_10317" data-name="Path 10317" d="M511.39,175.3H483.878a8.8,8.8,0,1,1,0-17.608H511.39a8.8,8.8,0,0,1,0,17.608Z" transform="translate(209.977 75.78)" fill="#f0f3fc"/>
      <path id="Path_10318" data-name="Path 10318" d="M470.365,175.3H442.854a8.8,8.8,0,0,1,0-17.608h27.512a8.8,8.8,0,0,1,0,17.608Z" transform="translate(190.262 75.78)" fill="#fff"/>
      <path id="Path_10319" data-name="Path 10319" d="M407.554,175.831h19.974a23.115,23.115,0,0,0,13.048-19.249H394.506A23.114,23.114,0,0,0,407.554,175.831Z" transform="translate(171.259 75.248)" fill="#fff"/>
      <path id="Path_10320" data-name="Path 10320" d="M369.757,175.831h19.974a23.112,23.112,0,0,0,13.048-19.249H356.71A23.11,23.11,0,0,0,369.757,175.831Z" transform="translate(153.096 75.248)" fill="#fff"/>
      <path id="Path_10321" data-name="Path 10321" d="M331.134,175.831h19.976a23.113,23.113,0,0,0,13.047-19.249H318.087A23.113,23.113,0,0,0,331.134,175.831Z" transform="translate(134.535 75.248)" fill="#fff"/>
      <g id="Group_16349" data-name="Group 16349" transform="translate(352.198 243.787)">
        <path id="Path_10372" data-name="Path 10372" d="M338.615,300.794h-2.373V388.86H338.9V300.794Z" transform="translate(-208.938 -99.237)" fill="#000543"/>
        <path id="Path_10373" data-name="Path 10373" d="M295.816,300.642h-2.373v88.066H296.1V300.642Z" transform="translate(-229.506 -99.31)" fill="#000543"/>
        <path id="Path_10374" data-name="Path 10374" d="M263.329,294.336h-2.373v97.658h2.654V294.336Z" transform="translate(-245.118 -102.34)" fill="#000543"/>
        <path id="Path_10375" data-name="Path 10375" d="M265.4,312.921l-4.291-44.816,2.786-.272,4.291,44.816Z" transform="translate(-245.046 -115.076)" fill="#000543"/>
        <path id="Path_10376" data-name="Path 10376" d="M331.96,307.589H265.734a8.445,8.445,0,1,1,0-16.88H331.96a8.445,8.445,0,1,1,0,16.88Z" transform="translate(-247.015 -104.083)" fill="#678fb7"/>
        <path id="Path_10377" data-name="Path 10377" d="M362.274,307.819h-67.03a8.471,8.471,0,1,1,0-16.927h67.03a8.471,8.471,0,1,1,0,16.927Z" transform="translate(-232.884 -103.995)" fill="#8bb5d8"/>
        <path id="Path_10378" data-name="Path 10378" d="M372.286,406.544l18.6-143.264h-2.386L369.9,406.544Z" transform="translate(-192.763 -117.264)" fill="#6d72a0"/>
        <path id="Path_10379" data-name="Path 10379" d="M314,351.074l-1.823,6.591h7.65l2.258-8.1Z" transform="translate(-220.501 -75.798)" fill="#ff9985"/>
        <path id="Path_10380" data-name="Path 10380" d="M355.491,249.03s8.487-2.542,14.739,5.838H356.5Z" transform="translate(-199.688 -124.287)" fill="#ff9985"/>
        <path id="Path_10381" data-name="Path 10381" d="M340.4,283.975c-18.71-3.963-37.7-4.75-56.429-8.943a16.629,16.629,0,0,1,.468,2.113l.028.222a30.585,30.585,0,0,0,22.451,25.27,29.283,29.283,0,0,0,5.715,2.323c3.8,1.1,7.841,1.392,11.322,3.419a35.908,35.908,0,0,0,3.519,2.11c2.234.974,4.679.768,7.04,1.05s5.028,1.362,5.944,3.657c.808,2.028-.058,4.172-.9,6.048-1.534,3.428-3.023,6.971-3.271,10.824-.309,4.813,1.341,9.878.274,14.514-1.5,6.535-8.085,10.792-8.722,17.543-.158,1.676.071,3.4.022,5.09-.139,4.809-2.447,8.9-3.3,13.531a3.929,3.929,0,0,0,3.685,4.612h9.575a4.746,4.746,0,0,0,4.285-2.646c6.227-12.3,13.763-25.532,17.1-38.157,3.154-11.916,7.646-25.673,8.035-38.172C367.718,293.4,353.424,286.733,340.4,283.975Z" transform="translate(-234.056 -111.617)" fill="#cd603f"/>
        <g id="Group_16338" data-name="Group 16338" transform="translate(0 93.391)">
          <path id="Path_10382" data-name="Path 10382" d="M259.411,289.311H319.1l-5.435-51.355c-.594-5.62-4.92-10.22-9.61-10.22H257.776c-4.692,0-8.044,4.6-7.449,10.22l5.047,47.693A4.074,4.074,0,0,0,259.411,289.311Z" transform="translate(-250.259 -227.736)" fill="#678fb7"/>
          <path id="Path_10383" data-name="Path 10383" d="M265.636,289.311h59.616a3.676,3.676,0,0,0,3.63-4.113l-5.417-47.242c-.645-5.62-5.333-10.22-10.416-10.22H262.9c-5.084,0-8.718,4.6-8.072,10.22l5.537,46.633A5.328,5.328,0,0,0,265.636,289.311Z" transform="translate(-248.1 -227.736)" fill="#8bb5d8"/>
        </g>
        <path id="Path_10384" data-name="Path 10384" d="M331.355,238.39l9.961,20.284L328.294,264.4l-9.05-15.336Z" transform="translate(-217.107 -129.226)" fill="#ff9985"/>
        <path id="Path_10385" data-name="Path 10385" d="M375.592,256.332l-.7-5.833c-4.667-.04-31.743-3.17-42.612-4.449l-5.952,10.176C332.543,260.2,355.366,258.925,375.592,256.332Z" transform="translate(-213.702 -125.544)" fill="#ff9985"/>
        <path id="Path_10386" data-name="Path 10386" d="M292.9,348.082c-8.416,19.059,1.059,18.534,4.631,10.154q2.154-5.055,4.267-10.154Z" transform="translate(-231.396 -76.512)" fill="#ff9985"/>
        <path id="Path_10387" data-name="Path 10387" d="M323.055,285.729c-18.389-3.879-37.319-4.648-55.706-8.752a15.159,15.159,0,0,1,.3,2.068l.012.216A27.084,27.084,0,0,0,288.068,304a27.332,27.332,0,0,0,5.528,2.273c3.71,1.072,7.729,1.362,11.045,3.346a32.309,32.309,0,0,0,3.349,2.064c2.154.955,4.616.754,6.956,1.027s4.918,1.334,5.648,3.58c.645,1.984-.394,4.083-1.384,5.919-1.809,3.355-3.586,6.822-4.146,10.595-.7,4.711.545,9.667-.9,14.2-2.031,6.4-8.956,10.562-10.139,17.17-.293,1.64-.2,3.325-.388,4.982-.527,4.705-3.167,8.715-4.394,13.242a3.532,3.532,0,0,0,3.314,4.514h9.573a5.249,5.249,0,0,0,4.5-2.59c7.219-12.035,15.824-24.989,20.183-37.344,4.116-11.664,9.72-25.128,11.119-37.362C349.609,294.959,335.855,288.429,323.055,285.729Z" transform="translate(-242.046 -110.682)" fill="#cd603f"/>
        <path id="Path_10388" data-name="Path 10388" d="M306.826,382.787l-.761-.486c1.15-1.911,2.332-3.842,3.525-5.792,6.23-10.183,12.672-20.713,16.252-30.858.745-2.108,1.537-4.276,2.345-6.486,3.567-9.751,7.61-20.8,8.75-30.771,1.679-14.7-12.41-20.829-24.526-23.384-7.962-1.68-15.932-2.761-23.415-3.724l.113-.915c7.5.965,15.488,2.049,23.483,3.734,12.483,2.634,26.994,9,25.233,24.4-1.152,10.077-5.216,21.187-8.8,30.987-.807,2.206-1.6,4.371-2.341,6.474C323.072,356.2,316.6,366.776,310.348,377,309.156,378.946,307.975,380.879,306.826,382.787Z" transform="translate(-231.643 -109.051)" fill="#9b432f"/>
        <path id="Path_10389" data-name="Path 10389" d="M324.144,217.429c-1.836,4.169-.6,13.713-5.217,14.724-.25.055-2.662.805-2.665.721-1.4.6-2.766,1.33-4.11,2.054-1.433.773-5.021,5.669-6.446,6.451,5.181,6.67,12,15.918,17.493,23.562a4.11,4.11,0,0,0,6.442.333l10.792-11.566a5.869,5.869,0,0,0,.908-6.694C336.291,237.55,327.651,224.06,324.144,217.429Z" transform="translate(-223.613 -139.299)" fill="#bccef7"/>
        <path id="Path_10390" data-name="Path 10390" d="M328.443,300.816c.674-9.419-1.344-15.867,2.126-24.788,5.4-13.888,15.756-25.467,18.137-40.31a8.105,8.105,0,0,0,0-2.621c-1.023-6.121-6.689-13.153-6.689-13.153-14.933-13.133-19.662-8.466-29.765-9-.572-.031-1.137-.044-1.7-.058-10.97-.249-24.865,7.04-28.533,17.191-9.353,25.868,2.607,28.427-14.8,81.544-.669,2.045,1.51,3.715,2.871,5.348l.111.052H313.82a17.266,17.266,0,0,0,8.926-2.539,11.1,11.1,0,0,0,4.97-6.944A28.115,28.115,0,0,0,328.443,300.816Z" transform="translate(-242.172 -142.599)" fill="#bccef7"/>
        <path id="Path_10391" data-name="Path 10391" d="M314.722,217.739c0,2.847,1.4,8.318-4.2,8.318s-16.088-5.471-16.088-8.318,4.542-5.154,10.146-5.154S314.722,214.893,314.722,217.739Z" transform="translate(-229.031 -141.627)" fill="#ff9985"/>
        <path id="Path_10392" data-name="Path 10392" d="M455.038,407.2,436.2,261.926h-2.386L452.653,407.2Z" transform="translate(-162.051 -117.915)" fill="#6d72a0"/>
        <g id="Group_16341" data-name="Group 16341" transform="translate(57.355)">
          <path id="Path_10393" data-name="Path 10393" d="M301.141,170.4a23.742,23.742,0,0,0-5.8,17.4l1.087,17.371c.745,11.868,9.208,20.084,19.013,19.3s17.391-10.275,16.647-22.142l-1.608-25.116Z" transform="translate(-285.973 -161.898)" fill="#ff9985"/>
          <path id="Path_10394" data-name="Path 10394" d="M314.134,181.572A8.092,8.092,0,0,0,315.97,192c-17.123.006-20.857-9.279-21.564-14.8a8.242,8.242,0,0,1,2.68-7.151,20.745,20.745,0,0,1,15.044-5.379,28.242,28.242,0,0,1,14.282,4.14,30.925,30.925,0,0,1,2.9,1.919,40.9,40.9,0,0,1,3.321,3.182,13.5,13.5,0,0,1,3.068,6.045,16.839,16.839,0,0,1-.266,8.216l-2.815,9.165c-.107.391-.589.431-.61.022-.207-4.181-.734-13.075-4.113-15.678a8.275,8.275,0,0,0,.42,10.009s-13.43.163-15.894-15.192Z" transform="translate(-286.43 -164.658)" fill="#000543"/>
          <path id="Path_10395" data-name="Path 10395" d="M298.141,171.011a21.918,21.918,0,0,0-7.739,9.964,24.684,24.684,0,0,0,1.624,19.973s6.227,9.61,8.845,14.279c.367.654,4.008,4.032,3.746,3.308-8.1-22.293,7.779-17.668,1.177-31.66Z" transform="translate(-288.997 -161.605)" fill="#000543"/>
          <g id="Group_16340" data-name="Group 16340" transform="translate(22.367 28.449)">
            <path id="Path_10396" data-name="Path 10396" d="M321.5,183.874l-3.876.184a1.041,1.041,0,0,0,.1,2.08l3.876-.182a1.042,1.042,0,0,0-.1-2.082Z" transform="translate(-298.081 -183.873)" fill="#000543"/>
            <g id="Group_16339" data-name="Group 16339" transform="translate(0 1.489)">
              <path id="Path_10397" data-name="Path 10397" d="M308.963,184.88l-3.876.184a1.041,1.041,0,0,0,.1,2.08l3.876-.182a1.042,1.042,0,0,0-.1-2.082Z" transform="translate(-304.104 -184.879)" fill="#000543"/>
              <path id="Path_10398" data-name="Path 10398" d="M319.74,189.278c.047,1.022-.446,1.874-1.1,1.905s-1.227-.771-1.275-1.793.446-1.873,1.1-1.9S319.693,188.258,319.74,189.278Z" transform="translate(-297.734 -183.627)" fill="#000543"/>
              <path id="Path_10399" data-name="Path 10399" d="M308.691,190.184c.047,1.022-.447,1.874-1.1,1.9s-1.227-.77-1.275-1.792.447-1.873,1.1-1.9S308.643,189.164,308.691,190.184Z" transform="translate(-303.044 -183.191)" fill="#000543"/>
              <path id="Path_10400" data-name="Path 10400" d="M316.6,192.866l-.163-.342a2.065,2.065,0,0,1-1.381,1.8l-1.988.663a1.547,1.547,0,0,1-1.726-.564l-.033.2a1.612,1.612,0,0,0,2.088,1.806l1.99-.663A2.1,2.1,0,0,0,316.6,192.866Z" transform="translate(-300.654 -181.205)" fill="#fa694f"/>
              <path id="Path_10401" data-name="Path 10401" d="M309.918,198.436c.278,1.1,1.053,2.361,3.439,2.436,2.356-.4,2.955-1.756,3.083-2.881Z" transform="translate(-301.31 -178.579)" fill="#fff"/>
            </g>
          </g>
          <path id="Path_10402" data-name="Path 10402" d="M298.218,187.708c3.035-.244,5.7,2.773,5.95,6.738s-2.006,7.375-5.043,7.617-5.7-2.773-5.95-6.737S295.183,187.953,298.218,187.708Z" transform="translate(-286.998 -153.588)" fill="#ff9985"/>
          <path id="Path_10403" data-name="Path 10403" d="M307.191,231.3c4.088-.28,7.233-3.091,6.908-8.192l-1.608-25.167c-.118-1.843-1.327-3.26-2.686-3.148l-9.887.826c-1.359.114-2.376,1.716-2.258,3.561l1.587,24.868C299.575,229.176,303.08,231.581,307.191,231.3Z" transform="translate(-284.838 -150.18)" fill="#ff9985"/>
        </g>
        <g id="Group_16342" data-name="Group 16342" transform="translate(55.313 281.09)">
          <path id="Path_10404" data-name="Path 10404" d="M298.83,354.512l9.813,3.367c2.4.825,2.856,2.521,1.9,3.781l-22.74-.534.912-5.055a1.886,1.886,0,0,1,1.852-1.559Z" transform="translate(-287.529 -354.512)" fill="#ff6494"/>
          <path id="Path_10405" data-name="Path 10405" d="M287.893,358.979l-.252.857c-.157.531.48,1.029,1.327,1.039l17.672.191a4.835,4.835,0,0,0,3.993-1.553Z" transform="translate(-287.618 -352.365)" fill="#000543"/>
        </g>
        <g id="Group_16343" data-name="Group 16343" transform="translate(89.847 281.09)">
          <path id="Path_10406" data-name="Path 10406" d="M322.155,354.512l9.813,3.367c2.4.825,2.856,2.521,1.9,3.781l-22.741-.534.912-5.055a1.887,1.887,0,0,1,1.852-1.559Z" transform="translate(-310.854 -354.512)" fill="#ff6494"/>
          <path id="Path_10407" data-name="Path 10407" d="M311.217,358.979l-.25.856c-.157.533.48,1.03,1.327,1.041l17.672.191a4.839,4.839,0,0,0,3.993-1.553Z" transform="translate(-310.943 -352.365)" fill="#000543"/>
        </g>
        <path id="Path_10408" data-name="Path 10408" d="M368.978,265.882h-8.644a2.259,2.259,0,0,1-2.249-2.27l-1.82-36.443h16.381l-1.42,36.443A2.259,2.259,0,0,1,368.978,265.882Z" transform="translate(-199.315 -134.617)" fill="#e6eeff"/>
        <path id="Path_10409" data-name="Path 10409" d="M357.507,232.573l1.11,27.14a2.157,2.157,0,0,0,2.022,2.27h6.611a2.156,2.156,0,0,0,2.022-2.27l1.257-27.14Z" transform="translate(-198.719 -132.021)" fill="#943437"/>
        <g id="Group_16344" data-name="Group 16344" transform="translate(87.195 106.957)">
          <path id="Path_10410" data-name="Path 10410" d="M325.261,248.554c1.99-3.463,4.961-6.766,8.883-7.37,2.2-.34,4.557.2,6.606-.68,1.76-.752,3-2.44,4.757-3.2a5.27,5.27,0,0,1,5.49.9c1.278,1.15,1.968,2.911,3.411,3.842,2.16,1.393,5.326.489,7.284,2.157,1.518,1.293,1.777,3.737,3.435,4.837,1.313.869,3.263.714,4.2,1.982A2.908,2.908,0,0,1,369.4,254a8.466,8.466,0,0,1-2.03,2.348c-1.707,1.538-3.54,3.136-5.793,3.546a14.785,14.785,0,0,1-3.688-.012c-6.415-.455-12.844.684-19.274.542-3.95-.087-7.875-.657-11.822-.85-2.052-.1-7.367,1.159-6.1-2.356A59.156,59.156,0,0,1,325.261,248.554Z" transform="translate(-303.7 -236.899)" fill="#a2ce84"/>
          <path id="Path_10411" data-name="Path 10411" d="M365.24,257.578H317.025V257A12.985,12.985,0,0,1,329.912,244h21.872A13.559,13.559,0,0,1,365.24,257.578Z" transform="translate(-305.369 -233.488)" fill="#f75b37"/>
          <ellipse id="Ellipse_102" data-name="Ellipse 102" cx="5.1" cy="5.147" rx="5.1" ry="5.147" transform="translate(16.481 13.177)" fill="#ffd878"/>
          <path id="Path_10412" data-name="Path 10412" d="M339.869,251.337a3.221,3.221,0,1,1-3.222-3.251A3.236,3.236,0,0,1,339.869,251.337Z" transform="translate(-297.486 -231.523)" fill="#ffd878"/>
          <path id="Path_10413" data-name="Path 10413" d="M353.6,250.969a5.033,5.033,0,1,1-5.032-5.078A5.056,5.056,0,0,1,353.6,250.969Z" transform="translate(-292.63 -232.578)" fill="#ffd878"/>
          <path id="Path_10414" data-name="Path 10414" d="M378.1,254.576H311.075a1.94,1.94,0,0,1,0-3.879H378.1a1.94,1.94,0,0,1,0,3.879Z" transform="translate(-309.152 -230.268)" fill="#fbe9dc"/>
        </g>
        <path id="Path_10415" data-name="Path 10415" d="M303.549,223.213a.581.581,0,0,1-.543-.078.589.589,0,0,1-.124-.82c.684-.94,19.644-9.641,27.765-13.338a.575.575,0,0,1,.768.293.588.588,0,0,1-.29.776c-10.438,4.753-26.289,12.118-27.339,13A.6.6,0,0,1,303.549,223.213Z" transform="translate(-225.025 -143.386)" fill="#8bb5d8"/>
        <path id="Path_10416" data-name="Path 10416" d="M321.054,213.735l.437-5.663a2.814,2.814,0,1,1,5.611.441l-.435,5.663a2.815,2.815,0,1,1-5.613-.441Z" transform="translate(-216.241 -145.055)" fill="#f75b37"/>
        <g id="Group_16346" data-name="Group 16346" transform="translate(36.671 78.13)">
          <path id="Path_10417" data-name="Path 10417" d="M296.578,223.9s-5.97,34.746-6.648,38.483c-.632,3.473-2.772,4.026-5.367,4.147l-.027.1-.309.666a9.429,9.429,0,0,1-5.565-2.2,6.121,6.121,0,0,1-2.382-5.34c.314-7.632,1.577-23.581,2.957-35.159l.077-.693Z" transform="translate(-274.428 -214.318)" fill="#ff9985"/>
          <g id="Group_16345" data-name="Group 16345">
            <path id="Path_10418" data-name="Path 10418" d="M297.939,245.979c1.522-9.507,2.8-22.645,3.235-28.55l-22.1,5.351a144.18,144.18,0,0,0-4,22.767c-.252,2.96.471,5.2,3.4,5.028l15.439-.9A4.336,4.336,0,0,0,297.939,245.979Z" transform="translate(-275.027 -217.429)" fill="#bccef7"/>
            <path id="Path_10419" data-name="Path 10419" d="M295.653,224.61a.447.447,0,0,0-.506.4c-.492,4.71-1.276,11.569-2.224,17.485a3.888,3.888,0,0,1-3.61,3.311l-5.937.349.481.911,5.534-.326a4.781,4.781,0,0,0,4.442-4.072c.948-5.936,1.737-12.813,2.228-17.536A.477.477,0,0,0,295.653,224.61Z" transform="translate(-271.014 -213.98)" fill="#88a9ea"/>
          </g>
        </g>
        <g id="Group_16348" data-name="Group 16348" transform="translate(42.192 69.756)">
          <path id="Path_10420" data-name="Path 10420" d="M279.97,266.7a6.278,6.278,0,0,1,1.221-8.712c8.528-6.584,34.385-30.215,42.418-37.538,2.989,3.466,2.936,2.4,4.689,5-10.981,12.185-30.087,34.506-38.028,42.36a12.411,12.411,0,0,1-5.2,1.821,6.793,6.793,0,0,1-4.271-2.1l-.139.222Z" transform="translate(-278.756 -207.603)" fill="#ff9985"/>
          <g id="Group_16347" data-name="Group 16347" transform="translate(42.537 0.373)">
            <path id="Path_10421" data-name="Path 10421" d="M308.547,216.063a1.2,1.2,0,0,1,1.189,1.159l.321,5.933a1.134,1.134,0,0,1-1.059,1.23,1.2,1.2,0,0,1-1.187-1.159l-.323-5.933A1.136,1.136,0,0,1,308.547,216.063Z" transform="translate(-307.487 -210.085)" fill="#ff9985"/>
            <path id="Path_10422" data-name="Path 10422" d="M317.237,212.631a1.21,1.21,0,0,1-.557,1.571l-5.225,2.736a1.123,1.123,0,0,1-1.547-.466,1.208,1.208,0,0,1,.558-1.569l5.225-2.738A1.121,1.121,0,0,1,317.237,212.631Z" transform="translate(-306.376 -212.025)" fill="#ff9985"/>
            <path id="Path_10423" data-name="Path 10423" d="M318.844,213.812a1.21,1.21,0,0,1-.558,1.571l-5.225,2.736a1.121,1.121,0,0,1-1.546-.466,1.207,1.207,0,0,1,.558-1.569l5.223-2.738A1.123,1.123,0,0,1,318.844,213.812Z" transform="translate(-305.603 -211.458)" fill="#ff9985"/>
            <path id="Path_10424" data-name="Path 10424" d="M319.363,220.9a5.565,5.565,0,0,0,.185-2.812,3.24,3.24,0,0,0-1.022-1.447,14.11,14.11,0,0,0-3.654-2.438,3.762,3.762,0,0,0-4.223.295,6.967,6.967,0,0,0-2.24,4.636c-.317,3.216-.4,4.369.766,6.777,1.461,3.016,2.6,5.811,5.355,2.339C315.949,226.468,318.808,223.037,319.363,220.9Z" transform="translate(-307.142 -211.221)" fill="#ff9985"/>
          </g>
          <path id="Path_10425" data-name="Path 10425" d="M310.857,238.166a.367.367,0,0,1-.5,0,.378.378,0,0,1-.021-.529c13.833-15.081,12.65-18.409,12.637-18.442a3,3,0,0,0-.942-1.343c-.185-.17-.379-.327-.571-.487l-.44-.358,2.388-1.263a.826.826,0,0,0,.4-1.073.7.7,0,0,0-.412-.36.8.8,0,0,0-.631.059l-3.194,1.672-.173-.095c-.083-.046-.169-.089-.255-.13l-.8-.41,2.695-1.411a.843.843,0,0,0,.4-1.075.7.7,0,0,0-.412-.358.806.806,0,0,0-.631.058l-5.413,2.868a3.405,3.405,0,0,0-.33.23A6.011,6.011,0,0,0,312.9,218.4l-.147.435-.392-.234a.706.706,0,0,0-.389-.107.714.714,0,0,0-.493.231.831.831,0,0,0-.207.6l.465,7.123-10.73,9.77a.368.368,0,0,1-.521-.028.375.375,0,0,1,.027-.527l10.46-9.527-.44-6.765a1.6,1.6,0,0,1,.4-1.155,1.41,1.41,0,0,1,1.4-.431,6.612,6.612,0,0,1,1.834-2.655,3.53,3.53,0,0,1,.349-.249l.127-.089c.086-.056.114-.076.141-.089l5.259-2.76a1.553,1.553,0,0,1,1.2-.105,1.442,1.442,0,0,1,.847.739,1.527,1.527,0,0,1,.012,1.279l.315-.164a1.56,1.56,0,0,1,1.2-.105,1.44,1.44,0,0,1,.845.739,1.583,1.583,0,0,1-.718,2.065l-1.4.733.181.16a3.64,3.64,0,0,1,1.116,1.584c.262.577.961,4.3-12.765,19.262Z" transform="translate(-268.36 -211.773)" fill="#fa694f"/>
        </g>
        <path id="Path_10426" data-name="Path 10426" d="M519.4,253.237H265.418v15.487H519.4a7.744,7.744,0,0,0,0-15.487Z" transform="translate(-242.974 -122.091)" fill="#ffe780"/>
      </g>
      <g id="Group_16362" data-name="Group 16362" transform="translate(171.656 250.126)">
        <path id="Path_10427" data-name="Path 10427" d="M181.562,301.337h-2.373V388.6h2.654V301.337Z" transform="translate(-103.871 -105.314)" fill="#000543"/>
        <path id="Path_10428" data-name="Path 10428" d="M222.283,301.065H219.91v87.263h2.654V301.065Z" transform="translate(-84.302 -105.445)" fill="#000543"/>
        <path id="Path_10429" data-name="Path 10429" d="M146.662,294.917h-2.373v96.767h2.654V294.917Z" transform="translate(-120.642 -108.399)" fill="#000543"/>
        <rect id="Rectangle_2033" data-name="Rectangle 2033" width="2.799" height="44.614" transform="translate(23.868 147.002) rotate(-5.519)" fill="#000543"/>
        <path id="Path_10430" data-name="Path 10430" d="M215.294,307.438H149.068a8.371,8.371,0,1,1,0-16.726h66.226a8.37,8.37,0,1,1,0,16.726Z" transform="translate(-122.539 -110.42)" fill="#678fb7"/>
        <path id="Path_10431" data-name="Path 10431" d="M242.194,307.571H182.085a8.482,8.482,0,0,1,0-16.927h60.109a8.482,8.482,0,0,1,0,16.927Z" transform="translate(-106.285 -110.453)" fill="#8bb5d8"/>
        <g id="Group_16350" data-name="Group 16350" transform="translate(7.81 87.908)">
          <path id="Path_10432" data-name="Path 10432" d="M142.743,289.327h59.685l-5.434-50.886c-.6-5.57-4.92-10.127-9.612-10.127H141.109c-4.692,0-8.044,4.557-7.447,10.127l5.046,47.257A4.06,4.06,0,0,0,142.743,289.327Z" transform="translate(-133.593 -228.314)" fill="#678fb7"/>
          <path id="Path_10433" data-name="Path 10433" d="M148.969,289.327h59.616a3.657,3.657,0,0,0,3.632-4.076l-5.419-46.81c-.644-5.57-5.331-10.127-10.416-10.127H146.231c-5.084,0-8.716,4.557-8.072,10.127l5.537,46.207A5.31,5.31,0,0,0,148.969,289.327Z" transform="translate(-131.434 -228.314)" fill="#8bb5d8"/>
        </g>
        <path id="Path_10434" data-name="Path 10434" d="M130.7,406.523,149.376,264.04H146.99L128.318,406.523Z" transform="translate(-128.318 -123.238)" fill="#6d72a0"/>
        <g id="Group_16354" data-name="Group 16354" transform="translate(34.576 147.584)">
          <path id="Path_10435" data-name="Path 10435" d="M232.876,304.592c-15.752.113-54.224-2.545-69.412-2.921-13.789-.342-15.066-33.918-6.021-33.033,35.363,3.463,81.607,6.88,96.727,14.778,7.946,4.152,6.7,18.1-1.947,20.122C247.2,304.709,242.508,304.524,232.876,304.592Z" transform="translate(-151.671 -268.62)" fill="#000543"/>
          <g id="Group_16351" data-name="Group 16351" transform="translate(55.312 16.105)">
            <path id="Path_10436" data-name="Path 10436" d="M209.706,284.7c-5.077-7.064-15.558-6.195-18.6,1.541l-1.313,3.343c-1.358,3.453-.641,7.281.086,11.039,5.053,26.15,8.321,61.472,7.04,91.865l9.342-.764c.8-3.508,6.39-82.885,5.571-93.84C211.489,293.246,212.478,288.557,209.706,284.7Z" transform="translate(-189.03 -279.313)" fill="#ff9985"/>
            <path id="Path_10437" data-name="Path 10437" d="M231.609,284.314c-4.27-7.064-14.852-6.195-18.774,1.541l-1.7,3.343c-1.751,3.454-1.788,6.673-1.491,10.431,2.03,25.632,1.612,60.687-2.849,90.665a1.6,1.6,0,0,0,1.558,1.837l6.494.1s13.908-62.166,17.382-94.731C232.725,292.882,233.94,288.171,231.609,284.314Z" transform="translate(-180.498 -279.498)" fill="#ff9985"/>
          </g>
          <g id="Group_16352" data-name="Group 16352" transform="translate(81.068 124.785)">
            <path id="Path_10438" data-name="Path 10438" d="M226.519,357.284l-2.351-.745c-7.773,3.907-13.845,1.424-17.287-.976l-.453,5.762c-.041.524.7,1.016,1.543,1.025l17.61.188C230.207,362.588,230.906,358.673,226.519,357.284Z" transform="translate(-206.426 -351.623)" fill="#d7e1fc"/>
            <path id="Path_10439" data-name="Path 10439" d="M224.02,357.819l-15.2-4.813c-.865-.274-1.786.022-1.83.589l-.255,3.248C210.175,359.243,216.247,361.726,224.02,357.819Z" transform="translate(-206.278 -352.902)" fill="#ff9985"/>
          </g>
          <g id="Group_16353" data-name="Group 16353" transform="translate(62.856 124.691)">
            <path id="Path_10440" data-name="Path 10440" d="M214.216,357.222l-2.351-.745c-7.773,3.906-13.843,1.424-17.287-.977l-.452,5.764c-.041.524.7,1.014,1.543,1.023l17.61.189C217.906,362.525,218.6,358.611,214.216,357.222Z" transform="translate(-194.125 -351.561)" fill="#d7e1fc"/>
            <path id="Path_10441" data-name="Path 10441" d="M211.718,357.756l-15.2-4.813c-.865-.274-1.787.022-1.831.589l-.255,3.247C197.875,359.18,203.945,361.662,211.718,357.756Z" transform="translate(-193.978 -352.839)" fill="#ff9985"/>
          </g>
        </g>
        <path id="Path_10442" data-name="Path 10442" d="M207.657,210.056a7.514,7.514,0,0,1,2.4-.034l.831.078a3.484,3.484,0,0,1,2.123.688.918.918,0,0,1,.252.363c.163.495-.33.949-.789,1.193a6.877,6.877,0,0,1-2.31.742,13.757,13.757,0,0,1-2.317.046c-.918-.034-2.631.292-2.68-1.039C205.128,210.961,206.762,210.263,207.657,210.056Z" transform="translate(-91.386 -149.235)" fill="#fcc172"/>
        <path id="Path_10443" data-name="Path 10443" d="M233.8,249.69s8.487-2.518,14.74,5.785H234.809Z" transform="translate(-77.625 -130.306)" fill="#ff9985"/>
        <path id="Path_10444" data-name="Path 10444" d="M209.669,239.147l9.961,20.1-13.021,5.674-9.05-15.2Z" transform="translate(-95.043 -135.2)" fill="#ff9985"/>
        <path id="Path_10445" data-name="Path 10445" d="M253.906,256.926l-.7-5.78c-4.665-.04-31.742-3.14-42.611-4.408l-5.953,10.083C210.856,260.759,233.679,259.495,253.906,256.926Z" transform="translate(-91.639 -131.552)" fill="#ff9985"/>
        <path id="Path_10446" data-name="Path 10446" d="M203.114,219.259c-1.834,4.131-17.669,21.652-19.095,22.426,5.179,6.609,12,15.772,17.493,23.345a4.131,4.131,0,0,0,6.44.332L218.746,253.9a5.778,5.778,0,0,0,.908-6.633C214.6,237.892,206.623,225.828,203.114,219.259Z" transform="translate(-101.55 -144.758)" fill="#ff6494"/>
        <path id="Path_10447" data-name="Path 10447" d="M184.517,314.382a18.432,18.432,0,0,0,20.312-17.777c.321-10.555.8-21.837,1.911-25.247,2.31-7.067,6.045-13.568,8.381-20.624,2.31-6.972,6.347-16.967,4.732-24.16-1.287-5.725-7.512-9.883-12.546-12.586-18.781-8.136-41.869,6.014-45.131,14.952-7.218,19.78-4.3,44.934-10.035,73.954a7.439,7.439,0,0,0,6.541,8.832Z" transform="translate(-116.937 -148.459)" fill="#ff6494"/>
        <g id="Group_16356" data-name="Group 16356" transform="translate(42.332 75.243)">
          <path id="Path_10448" data-name="Path 10448" d="M180.337,226.223s-7.307,34.214-8.128,37.888c-.765,3.416-2.926,3.879-5.523,3.9l-.031.1-.335.648a9.488,9.488,0,0,1-5.477-2.4,6.3,6.3,0,0,1-.58-.543,6.135,6.135,0,0,1-1.593-4.837c.607-7.545,2.483-23.286,4.308-34.7l.1-.638Z" transform="translate(-156.075 -216.934)" fill="#ff9985"/>
          <g id="Group_16355" data-name="Group 16355">
            <path id="Path_10449" data-name="Path 10449" d="M181.2,247.9c1.888-9.353,3.675-22.312,4.334-28.141l-24.663,4.7c-.252,3.793-2.172,14.169-3.849,21.649a4.606,4.606,0,0,0,4.553,5.582l15.463-.295A4.318,4.318,0,0,0,181.2,247.9Z" transform="translate(-156.909 -219.76)" fill="#ff6494"/>
            <path id="Path_10450" data-name="Path 10450" d="M179.2,226.831a.447.447,0,0,0-.521.379c-.674,4.645-1.722,11.4-2.9,17.226a3.873,3.873,0,0,1-3.735,3.137l-5.946.115.447.919,5.542-.107a4.763,4.763,0,0,0,4.594-3.858c1.177-5.841,2.23-12.619,2.9-17.277A.476.476,0,0,0,179.2,226.831Z" transform="translate(-152.492 -216.365)" fill="#d32061"/>
          </g>
        </g>
        <path id="Path_10451" data-name="Path 10451" d="M176.628,218.14a12.809,12.809,0,0,0,4.52,5.08,17.765,17.765,0,0,0,6.344,3.244,7.557,7.557,0,0,0,4.344-.129,4.608,4.608,0,0,0,2.923-3.066,5.3,5.3,0,0,0-.093-2.551c-.564-2.2-1.92-5.052-3.718-6.451s-3.2-1.651-5.389-2.279c-1.839-.527-5.844-.6-7.555.625A4.6,4.6,0,0,0,176.628,218.14Z" transform="translate(-105.287 -148.425)" fill="#ff9985"/>
        <g id="Group_16359" data-name="Group 16359" transform="translate(45.847)">
          <path id="Path_10452" data-name="Path 10452" d="M215.611,189.708c1.33,10.885-8.815,21.643-20.467,21.091s-20.675-9.88-20.155-20.835-3.835-15.778,7.25-19.407C201.5,164.254,214.129,177.578,215.611,189.708Z" transform="translate(-151.937 -168.939)" fill="#000544"/>
          <path id="Path_10453" data-name="Path 10453" d="M163.933,180.415c-.419,1.405-.564,2.937-1.359,4.156-.684,1.039-1.778,1.735-2.542,2.715s-1.112,2.539-.219,3.459c.423.437,1.041.635,1.463,1.07,1.189,1.226.164,3.155-.16,4.8a5.5,5.5,0,0,0,1.824,5.127c1.047.888,2.532,1.532,2.815,2.869.221,1.054-.434,2.206.068,3.165.737,1.408,2.96.845,4.226,1.8.891.677,1.075,1.911,1.521,2.936a5.573,5.573,0,0,0,4.887,3.287c1.094.013,2.216-.315,3.26.049,1.347.471,2.227,1.993,3.623,2.25,2.9.529,3.319-2.921,5.124-4.864,2.271-2.444,7.015-2.461,7.868-5.727.2-.764.154-1.664.7-2.23s1.5-.563,2.114-1.072c1.143-.955.477-2.988.909-4.359a9.716,9.716,0,0,1,.548-.879c4.455-7.643,4.59-16.408-.423-21.643-4.153-4.34-10.845-5.215-17.447-2.983-.065-.05-.1-.11-.17-.158a7.02,7.02,0,0,0-5.309-1.14c-3.473.444-4.325,3.7-7.162,4.489-1.087.3-2.262-.336-3.379-.178C165.26,177.563,164.352,179.011,163.933,180.415Z" transform="translate(-159.283 -167.009)" fill="#000544"/>
          <g id="Group_16358" data-name="Group 16358" transform="translate(16.507 3.221)">
            <g id="Group_16357" data-name="Group 16357">
              <path id="Path_10454" data-name="Path 10454" d="M184,187.67c-4.035,4.107-7.244-2.467-7.056,4.319l.262,9.391c.327,11.768,8.213,19.141,18.032,18.714s18-8.5,17.672-20.265l-.324-11.113c-.164-5.6-3.106-9.73-7.727-10.611a9.4,9.4,0,0,0-6.368,1.245Z" transform="translate(-167.307 -167.822)" fill="#ff9985"/>
              <path id="Path_10455" data-name="Path 10455" d="M180.2,171.115a21.755,21.755,0,0,0-8.077,9.587,24.24,24.24,0,0,0,.924,19.816s5.881,9.727,8.333,14.438c.343.662,3.861,4.131,3.623,3.405-7.31-22.342,8.384-17.206,2.283-31.281Z" transform="translate(-170.432 -171.115)" fill="#000544"/>
              <path id="Path_10456" data-name="Path 10456" d="M181.31,187.974c3.04-.135,5.594,2.943,5.706,6.874s-2.261,7.225-5.3,7.36-5.594-2.943-5.706-6.874S178.27,188.108,181.31,187.974Z" transform="translate(-167.754 -163.015)" fill="#ff9985"/>
              <path id="Path_10457" data-name="Path 10457" d="M189.542,194.44l-8.778.409c-1.207.056-2.145,1.637-2.085,3.512l.816,25.291c.167,5.216,3.214,7.805,6.862,7.7,3.629-.107,6.482-2.822,6.315-8.008l-.826-25.595C191.785,195.874,190.748,194.386,189.542,194.44Z" transform="translate(-166.471 -159.906)" fill="#ff9985"/>
            </g>
            <path id="Path_10458" data-name="Path 10458" d="M203.2,183.668l-4.3.076a1.143,1.143,0,0,0,.04,2.286l4.3-.076a1.143,1.143,0,0,0-.04-2.286Z" transform="translate(-157.289 -165.083)" fill="#000544"/>
            <path id="Path_10459" data-name="Path 10459" d="M192.894,183.814l-4.273.471a1.143,1.143,0,0,0,.25,2.273l4.273-.469a1.144,1.144,0,0,0-.25-2.274Z" transform="translate(-162.18 -165.016)" fill="#000544"/>
            <path id="Path_10460" data-name="Path 10460" d="M197.328,193.383l-.138-.3a1.808,1.808,0,0,1-1.257,1.549l-1.772.539a1.375,1.375,0,0,1-1.515-.529l-.033.173a1.421,1.421,0,0,0,1.808,1.626l1.772-.539A1.834,1.834,0,0,0,197.328,193.383Z" transform="translate(-159.785 -160.559)" fill="#fa694f"/>
            <path id="Path_10461" data-name="Path 10461" d="M201.942,188.044l-1.849.238c-.053.033-.132-.015-.221-.013-.654.015-1.165.845-1.142,1.854s.572,1.812,1.226,1.8,1.167-.844,1.143-1.852a2.549,2.549,0,0,0-.173-.847Z" transform="translate(-156.834 -162.98)" fill="#000544"/>
            <path id="Path_10462" data-name="Path 10462" d="M188.613,188.613c.1.022,1.954-.154,1.954-.154l-.934,1.011a2.511,2.511,0,0,1,.224.931c.031,1.008-.474,1.842-1.128,1.863s-1.21-.78-1.242-1.789S187.96,188.635,188.613,188.613Z" transform="translate(-162.237 -162.78)" fill="#000544"/>
          </g>
          <path id="Path_10463" data-name="Path 10463" d="M190.3,198.066a3,3,0,0,0,5.961.176Z" transform="translate(-144.377 -154.942)" fill="#fff"/>
        </g>
        <path id="Path_10464" data-name="Path 10464" d="M190.027,217.391a.74.74,0,0,1-.227-1.444c.693-.224,17.006-5.49,22.841-4.868a.738.738,0,0,1,.662.808.726.726,0,0,1-.81.663c-5.512-.533-22.072,4.751-22.238,4.8A.763.763,0,0,1,190.027,217.391Z" transform="translate(-99.018 -148.713)" fill="#fbe9dc"/>
        <g id="Group_16361" data-name="Group 16361" transform="translate(48.92 63.704)">
          <path id="Path_10465" data-name="Path 10465" d="M162.549,265.84a6.184,6.184,0,0,1,1.275-8.626c8.568-6.47,34.57-29.724,42.649-36.93,2.967,3.453,2.921,2.4,4.658,4.979-11.055,12.006-30.3,34-38.289,41.737-.7.682-3.506,3.336-4.421,3.635-.871.284.154-1.763-.789-1.863a6.823,6.823,0,0,1-4.258-2.107l-.139.219Z" transform="translate(-161.359 -207.969)" fill="#ff9985"/>
          <g id="Group_16360" data-name="Group 16360" transform="translate(42.832)">
            <path id="Path_10466" data-name="Path 10466" d="M191.355,215.931a1.193,1.193,0,0,1,1.181,1.156l.284,5.879a1.126,1.126,0,0,1-1.065,1.213,1.193,1.193,0,0,1-1.181-1.156l-.286-5.879A1.127,1.127,0,0,1,191.355,215.931Z" transform="translate(-190.288 -210.061)" fill="#ff9985"/>
            <path id="Path_10467" data-name="Path 10467" d="M200.073,212.573a1.193,1.193,0,0,1-.569,1.552l-5.241,2.68a1.125,1.125,0,0,1-1.543-.472,1.192,1.192,0,0,1,.567-1.552l5.241-2.68A1.127,1.127,0,0,1,200.073,212.573Z" transform="translate(-189.17 -211.966)" fill="#ff9985"/>
            <path id="Path_10468" data-name="Path 10468" d="M201.672,213.753a1.2,1.2,0,0,1-.567,1.553l-5.241,2.678a1.127,1.127,0,0,1-1.544-.472,1.193,1.193,0,0,1,.567-1.552l5.241-2.68A1.128,1.128,0,0,1,201.672,213.753Z" transform="translate(-188.402 -211.399)" fill="#ff9985"/>
            <path id="Path_10469" data-name="Path 10469" d="M202.156,220.788a5.464,5.464,0,0,0,.2-2.785,3.206,3.206,0,0,0-1.011-1.439,14.105,14.105,0,0,0-3.641-2.44,3.792,3.792,0,0,0-4.223.265,6.89,6.89,0,0,0-2.27,4.579c-.336,3.186-.429,4.328.724,6.72,1.444,3,2.561,5.774,5.34,2.351C198.708,226.279,201.586,222.9,202.156,220.788Z" transform="translate(-189.951 -211.178)" fill="#ff9985"/>
          </g>
        </g>
        <path id="Path_10470" data-name="Path 10470" d="M203.855,211.289c.305,2.08,2.89,3.587,5.955,3.4s5.443-2.011,5.486-4.113Z" transform="translate(-92.017 -148.932)" fill="#fbe9dc"/>
        <path id="Path_10471" data-name="Path 10471" d="M210.609,241.431a16.927,16.927,0,0,1,3.989-.909c1.485.006,2.906.721,4.391.682a19.09,19.09,0,0,0,3.543-.82,16.2,16.2,0,0,1,5.358.028l14.286,1.666c1.87.219,4.08.683,4.785,2.428a28.474,28.474,0,0,1-7.5.909c-6.626.207-28.221.842-32.393.785-1.137-.015-9.551-.862-6.423-3.5,1.045-.882,3.573-.725,4.852-.785A26.7,26.7,0,0,0,210.609,241.431Z" transform="translate(-93.895 -134.71)" fill="#fcc172"/>
        <path id="Path_10472" data-name="Path 10472" d="M197,242.083c.875,7.486,7.305,13.769,16.18,16.538h20.282c8.876-2.769,15.306-9.052,16.18-16.538Z" transform="translate(-95.311 -133.789)" fill="#fbe9dc"/>
        <path id="Rectangle_2034" data-name="Rectangle 2034" d="M0,0H13.142a0,0,0,0,1,0,0V36.84a1.519,1.519,0,0,1-1.519,1.519H1.519A1.519,1.519,0,0,1,0,36.84V0A0,0,0,0,1,0,0Z" transform="translate(160.189 86.473)" fill="#e6eeff"/>
        <path id="Path_10473" data-name="Path 10473" d="M237.275,232.7v26.892a2.144,2.144,0,0,0,2.022,2.249h6.611a2.144,2.144,0,0,0,2.021-2.249V232.7Z" transform="translate(-75.957 -138.299)" fill="#fff"/>
        <path id="Path_10474" data-name="Path 10474" d="M226.134,407.157,207.2,262.525h-2.386l18.934,144.632Z" transform="translate(-91.556 -123.966)" fill="#6d72a0"/>
        <path id="Path_10475" data-name="Path 10475" d="M323.385,268.259a7.652,7.652,0,0,0-2.138-15.005H165.678v15.005Z" transform="translate(-110.364 -128.421)" fill="#ffe780"/>
        <path id="Path_10476" data-name="Path 10476" d="M142.353,268.259h96.031a7.652,7.652,0,0,0-2.139-15.005H144.491a7.652,7.652,0,0,0-2.138,15.005Z" transform="translate(-124.232 -128.421)" fill="#fcc172"/>
      </g>
    </g>
    <g id="Rectangle_2076" data-name="Rectangle 2076" transform="translate(67 67)" fill="none" stroke="#fff" stroke-width="12">
      <rect width="784" height="137" stroke="none"/>
      <rect x="6" y="6" width="772" height="125" fill="none"/>
    </g>
    <g id="Device" transform="translate(630.887 183.624)">
      <g id="Group_7952" data-name="Group 7952">
        <rect id="Rectangle_651" data-name="Rectangle 651" width="217.978" height="392.063" rx="9.688" fill="#407bff"/>
        <rect id="Rectangle_652" data-name="Rectangle 652" width="217.978" height="392.063" rx="9.688" fill="#fff" opacity="0.8"/>
        <g id="Group_7914" data-name="Group 7914" transform="translate(103.376 5.905)">
          <path id="Path_5441" data-name="Path 5441" d="M314.436,132.482a2.79,2.79,0,1,1-2.791-2.789A2.791,2.791,0,0,1,314.436,132.482Z" transform="translate(-308.856 -129.693)" opacity="0.6" style="isolation: isolate"/>
          <path id="Path_5442" data-name="Path 5442" d="M318.106,132.223a1.787,1.787,0,1,1-1.788-1.786A1.787,1.787,0,0,1,318.106,132.223Z" transform="translate(-306.88 -129.434)" opacity="0.6" style="isolation: isolate"/>
        </g>
        <g id="Group_7950" data-name="Group 7950" transform="translate(7.356 8.215)">
          <path id="Path_5443" data-name="Path 5443" d="M440.9,136.325V501.419a5.335,5.335,0,0,1-5.417,5.336H242.473a4.779,4.779,0,0,1-4.839-4.9V135.887a4.31,4.31,0,0,1,4.146-4.481h48.252a3.4,3.4,0,0,1,3.108,2.171l2,4.921a3.393,3.393,0,0,0,3.106,2.148h82.149a3.361,3.361,0,0,0,3.108-2.114l2-4.942a3.407,3.407,0,0,1,3.106-2.183h47.559A4.873,4.873,0,0,1,440.9,136.325Z" transform="translate(-237.634 -131.406)" fill="#263238"/>
          <rect id="Rectangle_653" data-name="Rectangle 653" width="203.266" height="328.339" transform="translate(0 22.809)" fill="#fff" opacity="0.3" style="isolation: isolate"/>
          <rect id="Rectangle_654" data-name="Rectangle 654" width="193.235" height="281.304" transform="translate(5.015 65.196)" fill="#407bff" style="isolation: isolate"/>
          <path id="Path_5648" data-name="Path 5648" d="M0,0H193.235V281.3H0Z" transform="translate(5.015 65.196)" fill="#ffe1ea"/>
          <rect id="Rectangle_656" data-name="Rectangle 656" width="8.061" height="8.061" rx="1.803" transform="translate(97.602 357.74)" fill="none" stroke="#fff" stroke-miterlimit="10" stroke-width="0.931"/>
          <g id="Group_7917" data-name="Group 7917" transform="translate(5.015 29.245)">
            <rect id="Rectangle_657" data-name="Rectangle 657" width="193.235" height="33.115" fill="#780e2f" style="isolation: isolate"/>
            <g id="Group_7916" data-name="Group 7916" transform="translate(180.942 9.426)">
              <path id="Path_5446" data-name="Path 5446" d="M378.53,161.572a1.482,1.482,0,1,1-1.482-1.482A1.482,1.482,0,0,1,378.53,161.572Z" transform="translate(-375.567 -160.09)" fill="#fff"/>
              <path id="Path_5447" data-name="Path 5447" d="M378.53,165.763a1.482,1.482,0,1,1-1.482-1.483A1.482,1.482,0,0,1,378.53,165.763Z" transform="translate(-375.567 -158.631)" fill="#fff"/>
              <path id="Path_5448" data-name="Path 5448" d="M378.53,169.954a1.482,1.482,0,1,1-1.482-1.482A1.482,1.482,0,0,1,378.53,169.954Z" transform="translate(-375.567 -157.172)" fill="#fff"/>
            </g>
          </g>
          <path id="Path_5647" data-name="Path 5647" d="M3.288,0H183.656c1.816,0,3.288.607,3.288,1.355v36.5H0V1.355C0,.607,1.472,0,3.288,0Z" transform="translate(8.161 84.683)" fill="#c2486e"/>
          <g id="Group_7946" data-name="Group 7946" transform="translate(93.686 330.34)">
            <path id="Path_5553" data-name="Path 5553" d="M307.125,380.162l7.947,4.213,7.947-4.213" transform="translate(-307.125 -375.137)" fill="none" stroke="#fff" stroke-linecap="round" stroke-linejoin="round" stroke-width="0.931"/>
            <path id="Path_5554" data-name="Path 5554" d="M307.125,376.435l7.947,4.213,7.947-4.213" transform="translate(-307.125 -376.435)" fill="none" stroke="#fff" stroke-linecap="round" stroke-linejoin="round" stroke-width="0.931"/>
          </g>
          <g id="Group_7949" data-name="Group 7949" transform="translate(10.125 8.016)">
            <g id="Group_7947" data-name="Group 7947" transform="translate(0 0)">
              <rect id="Rectangle_660" data-name="Rectangle 660" width="2.511" height="3.347" transform="translate(14.786 6.697) rotate(180)" fill="#fff" opacity="0.6" style="isolation: isolate"/>
              <rect id="Rectangle_661" data-name="Rectangle 661" width="2.511" height="4.464" transform="translate(10.694 6.697) rotate(180)" fill="#fff" opacity="0.6" style="isolation: isolate"/>
              <rect id="Rectangle_662" data-name="Rectangle 662" width="2.511" height="5.58" transform="translate(6.603 6.697) rotate(180)" fill="#fff" opacity="0.6" style="isolation: isolate"/>
              <rect id="Rectangle_663" data-name="Rectangle 663" width="2.511" height="6.697" transform="translate(2.511 6.697) rotate(180)" fill="#fff" opacity="0.6" style="isolation: isolate"/>
            </g>
            <g id="Group_7948" data-name="Group 7948" transform="translate(168.648 0.907)">
              <rect id="Rectangle_664" data-name="Rectangle 664" width="1.488" height="3.347" transform="translate(0 1.222)" fill="#fff" opacity="0.6" style="isolation: isolate"/>
              <rect id="Rectangle_665" data-name="Rectangle 665" width="11.857" height="5.79" transform="translate(14.368 5.79) rotate(180)" fill="#fff" opacity="0.6" style="isolation: isolate"/>
            </g>
          </g>
          <text id="Canteen_Management" data-name="Canteen Management" transform="translate(38.502 49.803)" fill="#fff" font-size="11" font-family="Poppins-Regular, Poppins"><tspan x="0" y="0">CANTEEN MANAGEMENT</tspan></text>
          <path id="Path_11413" data-name="Path 11413" d="M3.288,0H183.656c1.816,0,3.288.607,3.288,1.355v36.5H0V1.355C0,.607,1.472,0,3.288,0Z" transform="translate(8.161 130.683)" fill="#c2486e"/>
          <path id="Path_11414" data-name="Path 11414" d="M3.288,0H183.656c1.816,0,3.288.607,3.288,1.355v36.5H0V1.355C0,.607,1.472,0,3.288,0Z" transform="translate(8.161 176.683)" fill="#c2486e"/>
        </g>
        <g id="Group_18833" data-name="Group 18833" transform="translate(28.015 105.041)">
          <g id="Group_17118" data-name="Group 17118" transform="translate(2.113)">
            <path id="Path_11058" data-name="Path 11058" d="M284.324,128.881h15.7l-1.174,8.632s-1.025,4.252-3.411,4.252h-6.8a7.286,7.286,0,0,1-3.307-4.653Z" transform="translate(-284.324 -128.881)" fill="#fff"/>
          </g>
          <g id="Group_17120" data-name="Group 17120" transform="translate(14.838 2.245)">
            <g id="Group_17119" data-name="Group 17119">
              <path id="Path_11059" data-name="Path 11059" d="M297.516,132.861c.076-.021.153-.038.229-.056.018,0,.149-.029.03-.009s.038,0,.069,0a4.868,4.868,0,0,1,.51.008c-.166-.006-.025,0,.06.012s.179.041.268.067.149.053.224.075c.1.03-.03-.014-.043-.02.048.022.1.043.143.067a4.18,4.18,0,0,1,.438.267c.088.06-.027-.018-.037-.027.029.027.06.05.089.077.068.061.134.126.2.193.047.051.146.184.052.051.053.076.106.151.153.231s.072.144.114.214c.052.09-.01-.027-.016-.042.019.05.038.1.055.15.03.089.055.179.076.271.008.036.048.261.032.15s.008.117.009.155c0,.094.006.187,0,.282,0,.053-.007.107-.01.16,0,.019-.022.149,0,.033s-.026.116-.033.151c-.019.079-.04.156-.064.233-.019.061-.108.276-.032.113a3.177,3.177,0,0,1-.253.454c-.023.033-.046.067-.07.1.011-.016.1-.106.022-.036s-.143.157-.221.228c-.029.027-.2.158-.117.1s-.1.062-.13.081c-.067.041-.136.079-.206.116-.035.018-.07.033-.106.051.117-.059.058-.021-.029.01-.175.063-.353.1-.532.141-.106.028.042,0,.056,0-.052,0-.1.011-.157.014-.1.007-.211.009-.315.006l-.118-.007c-.022,0-.193-.021-.07,0s-.011,0-.029-.007c-.051-.011-.1-.02-.154-.033-.1-.025-.2-.057-.3-.09-.017,0-.137-.056-.033-.01s-.1-.053-.1-.053a.946.946,0,0,0-.955,1.634,4.055,4.055,0,0,0,5.308-1.452,4.193,4.193,0,0,0,.446-2.983,3.85,3.85,0,0,0-1.723-2.4,4.087,4.087,0,0,0-3.224-.487.947.947,0,0,0,.5,1.826Z" transform="translate(-295.748 -130.897)" fill="#fff"/>
            </g>
          </g>
          <g id="Group_17121" data-name="Group 17121" transform="translate(0 12.355)">
            <rect id="Rectangle_2075" data-name="Rectangle 2075" width="20.076" height="1.554" fill="#fff"/>
          </g>
        </g>
        <g id="Group_18834" data-name="Group 18834" transform="translate(57.619 105.844)">
          <g id="Group_17046" data-name="Group 17046">
            <path id="Path_11024" data-name="Path 11024" d="M544.587,116.426c0,.159-21.186.29-47.313.29s-47.318-.13-47.318-.29,21.181-.291,47.318-.291S544.587,116.265,544.587,116.426Z" transform="translate(-449.955 -116.135)" fill="#fff"/>
          </g>
        </g>
        <g id="Group_18835" data-name="Group 18835" transform="translate(57.619 110.844)">
          <g id="Group_17046-2" data-name="Group 17046">
            <path id="Path_11024-2" data-name="Path 11024" d="M489.693,116.426c0,.159-8.9.29-19.868.29s-19.87-.13-19.87-.29,8.894-.291,19.87-.291S489.693,116.265,489.693,116.426Z" transform="translate(-449.955 -116.135)" fill="#fff"/>
          </g>
        </g>
        <g id="Group_18836" data-name="Group 18836" transform="translate(57.619 115.844)">
          <g id="Group_17046-3" data-name="Group 17046">
            <path id="Path_11024-3" data-name="Path 11024" d="M489.693,116.426c0,.159-8.9.29-19.868.29s-19.87-.13-19.87-.29,8.894-.291,19.87-.291S489.693,116.265,489.693,116.426Z" transform="translate(-449.955 -116.135)" fill="#fff"/>
          </g>
        </g>
        <circle id="Ellipse_115" data-name="Ellipse 115" cx="6.5" cy="6.5" r="6.5" transform="translate(175.112 104.794)" fill="#fff"/>
        <path id="Icon_metro-checkmark" data-name="Icon metro-checkmark" d="M16.726,5.784,8.862,13.648l-3.67-3.67L2.571,12.6l6.291,6.291L19.347,8.405Z" transform="translate(170.653 97.533)" fill="#263238"/>
        <g id="Group_18837" data-name="Group 18837" transform="translate(57.619 153.844)">
          <g id="Group_17046-4" data-name="Group 17046">
            <path id="Path_11024-4" data-name="Path 11024" d="M544.587,116.426c0,.159-21.186.29-47.313.29s-47.318-.13-47.318-.29,21.181-.291,47.318-.291S544.587,116.265,544.587,116.426Z" transform="translate(-449.955 -116.135)" fill="#fff"/>
          </g>
        </g>
        <g id="Group_18838" data-name="Group 18838" transform="translate(57.619 158.844)">
          <g id="Group_17046-5" data-name="Group 17046">
            <path id="Path_11024-5" data-name="Path 11024" d="M489.693,116.426c0,.159-8.9.29-19.868.29s-19.87-.13-19.87-.29,8.894-.291,19.87-.291S489.693,116.265,489.693,116.426Z" transform="translate(-449.955 -116.135)" fill="#fff"/>
          </g>
        </g>
        <g id="Group_18839" data-name="Group 18839" transform="translate(57.619 163.844)">
          <g id="Group_17046-6" data-name="Group 17046">
            <path id="Path_11024-6" data-name="Path 11024" d="M489.693,116.426c0,.159-8.9.29-19.868.29s-19.87-.13-19.87-.29,8.894-.291,19.87-.291S489.693,116.265,489.693,116.426Z" transform="translate(-449.955 -116.135)" fill="#fff"/>
          </g>
        </g>
        <circle id="Ellipse_116" data-name="Ellipse 116" cx="6.5" cy="6.5" r="6.5" transform="translate(175.112 153.794)" fill="#fff"/>
        <path id="Icon_metro-checkmark-2" data-name="Icon metro-checkmark" d="M16.726,5.784,8.862,13.648l-3.67-3.67L2.571,12.6l6.291,6.291L19.347,8.405Z" transform="translate(170.653 146.533)" fill="#263238"/>
        <path id="Icon_awesome-hamburger" data-name="Icon awesome-hamburger" d="M18.782,11.317H1.943a1.943,1.943,0,1,0,0,3.886H18.782a1.943,1.943,0,1,0,0-3.886Zm.648,5.181H1.3a.648.648,0,0,0-.648.648v.648a2.591,2.591,0,0,0,2.591,2.591H17.486a2.591,2.591,0,0,0,2.591-2.591v-.648A.648.648,0,0,0,19.429,16.5ZM2.374,10.022H18.351A1.972,1.972,0,0,0,19.76,6.95c-1.626-2.628-5.207-4.7-9.4-4.7S2.591,4.322.964,6.95A1.972,1.972,0,0,0,2.374,10.022Zm13.17-4.533a.648.648,0,1,1-.648.648A.648.648,0,0,1,15.543,5.488Zm-5.181-1.3a.648.648,0,1,1-.648.648A.648.648,0,0,1,10.362,4.193Zm-5.181,1.3a.648.648,0,1,1-.648.648A.648.648,0,0,1,5.181,5.488Z" transform="translate(28.015 146.107)" fill="#fff"/>
        <g id="Group_18840" data-name="Group 18840" transform="translate(57.619 198.844)">
          <g id="Group_17046-7" data-name="Group 17046">
            <path id="Path_11024-7" data-name="Path 11024" d="M544.587,116.426c0,.159-21.186.29-47.313.29s-47.318-.13-47.318-.29,21.181-.291,47.318-.291S544.587,116.265,544.587,116.426Z" transform="translate(-449.955 -116.135)" fill="#fff"/>
          </g>
        </g>
        <g id="Group_18841" data-name="Group 18841" transform="translate(57.619 203.844)">
          <g id="Group_17046-8" data-name="Group 17046">
            <path id="Path_11024-8" data-name="Path 11024" d="M489.693,116.426c0,.159-8.9.29-19.868.29s-19.87-.13-19.87-.29,8.894-.291,19.87-.291S489.693,116.265,489.693,116.426Z" transform="translate(-449.955 -116.135)" fill="#fff"/>
          </g>
        </g>
        <g id="Group_18842" data-name="Group 18842" transform="translate(57.619 208.844)">
          <g id="Group_17046-9" data-name="Group 17046">
            <path id="Path_11024-9" data-name="Path 11024" d="M489.693,116.426c0,.159-8.9.29-19.868.29s-19.87-.13-19.87-.29,8.894-.291,19.87-.291S489.693,116.265,489.693,116.426Z" transform="translate(-449.955 -116.135)" fill="#fff"/>
          </g>
        </g>
        <circle id="Ellipse_117" data-name="Ellipse 117" cx="6.5" cy="6.5" r="6.5" transform="translate(175.112 197.794)" fill="#fff"/>
        <path id="Icon_metro-checkmark-3" data-name="Icon metro-checkmark" d="M16.726,5.784,8.862,13.648l-3.67-3.67L2.571,12.6l6.291,6.291L19.347,8.405Z" transform="translate(170.653 190.533)" fill="#263238"/>
        <path id="Icon_map-food" data-name="Icon map-food" d="M21.986,7.811l-1.747,13.7h-5.9L12.6,7.743h7.2l1.424-4.918.807.243L20.667,7.8l1.319.01ZM11.763,15.735s.221-1.776-2.839-1.776H4.05c-3.056,0-2.839,1.776-2.839,1.776H11.763Zm-10.552,4S.994,21.507,4.05,21.507H8.924c3.06,0,2.839-1.776,2.839-1.776H1.21ZM11.3,18.843a1.021,1.021,0,0,0,.905-1.11,1.02,1.02,0,0,0-.905-1.11H1.626a1.022,1.022,0,0,0-.906,1.11,1.023,1.023,0,0,0,.906,1.11H11.3Z" transform="translate(27.295 190.705)" fill="#fff"/>
      </g>
    </g>
  </g>
</svg>
